<?xml version="1.0" encoding="UTF-8" standalone="no"?>
<!-- Generator: Adobe Illustrator 14.0.0, SVG Export Plug-In . SVG Version: 6.00 Build 43363)  -->

<svg
   xmlns:dc="http://purl.org/dc/elements/1.1/"
   xmlns:cc="http://creativecommons.org/ns#"
   xmlns:rdf="http://www.w3.org/1999/02/22-rdf-syntax-ns#"
   xmlns:svg="http://www.w3.org/2000/svg"
   xmlns="http://www.w3.org/2000/svg"
   xmlns:sodipodi="http://sodipodi.sourceforge.net/DTD/sodipodi-0.dtd"
   xmlns:inkscape="http://www.inkscape.org/namespaces/inkscape"
   id="svg2"
   sodipodi:docname="ladybug.svg"
   enable-background="new 0 0 500 500"
   xml:space="preserve"
   version="1.1"
   y="0px"
   x="0px"
   inkscape:version="0.48.4 r"
   viewBox="0 0 160.63609 145.50784"
   width="100%"
   height="100%"><defs
     id="defs3570" /><sodipodi:namedview
     id="namedview160"
     bordercolor="#666666"
     inkscape:pageshadow="2"
     guidetolerance="10"
     pagecolor="#ffffff"
     gridtolerance="10"
     inkscape:window-maximized="1"
     inkscape:zoom="1"
     objecttolerance="10"
     borderopacity="1"
     inkscape:current-layer="svg2"
     inkscape:cx="188.3649"
     inkscape:cy="242.76582"
     inkscape:window-y="-8"
     inkscape:window-x="1672"
     inkscape:window-width="1920"
     showgrid="false"
     inkscape:pageopacity="0"
     inkscape:window-height="1017"
     showguides="true"
     inkscape:guide-bbox="true"
     fit-margin-top="0"
     fit-margin-left="0"
     fit-margin-right="0"
     fit-margin-bottom="0" /><g
     id="Outline"
     transform="matrix(0.33214249,0,0,0.33214249,-2.5880393,-10.296417)"><g
       id="Background"><circle
         id="circle9"
         sodipodi:rx="175"
         sodipodi:ry="175"
         d="m 423,281 c 0,96.64983 -78.35017,175 -175,175 -96.64983,0 -175,-78.35017 -175,-175 0,-96.64983 78.35017,-175 175,-175 96.64983,0 175,78.35017 175,175 z"
         cy="281"
         sodipodi:cy="281"
         cx="248"
         r="175"
         sodipodi:cx="248" /><path
         id="path11"
         d="m 76,133 c 0,0 -18,-13 -26,4 1,14 6,40 6,40 l 43,32 16,-25 -30,-19 c 0,0 -6,1 -9,-32 z"
         inkscape:connector-curvature="0" /><path
         id="path13"
         d="m 418,131 c 0,0 18,-13 26,4 -1,14 -6,40 -6,40 l -43,32 -16,-25 30,-19 c 0,0 6,1 9,-32 z"
         inkscape:connector-curvature="0" /><path
         id="path15"
         d="m 477.68,300.13 c 0,0 20.838,-7.669 11.205,-23.801 -12.171,-6.991 -36.529,-17.366 -36.529,-17.366 l -50.562,17.793 11.799,27.235 32.518,-14.271 c -10e-4,10e-4 2.521,-5.535 31.569,10.41 z"
         inkscape:connector-curvature="0" /><path
         id="path17"
         d="m 21.54,300.13 c 0,0 -20.838,-7.669 -11.205,-23.801 12.171,-6.991 36.529,-17.366 36.529,-17.366 l 50.562,17.8 -11.799,27.23 -32.518,-14.27 c 0,10e-4 -2.521,-5.535 -31.569,10.41 z"
         inkscape:connector-curvature="0" /><path
         id="path19"
         d="m 112.8,462.58 c 0,0 -16.251,15.131 -26.296,-0.748 -0.743,-14.016 0.997,-40.435 0.997,-40.435 l 38.704,-37.082 18.975,22.825 -27.415,22.571 c 0.001,10e-4 -6.077,-0.249 -4.965,32.869 z"
         inkscape:connector-curvature="0" /><path
         id="path21"
         d="m 378.7,462.58 c 0,0 16.25,15.131 26.295,-0.748 0.743,-14.016 -0.996,-40.435 -0.996,-40.435 l -38.705,-37.082 -18.975,22.825 27.415,22.571 c 0,10e-4 6.079,-0.249 4.966,32.869 z"
         inkscape:connector-curvature="0" /><path
         id="path23"
         d="m 227,74 c 0,0 -27,26 -37,55 14,7 34,15 34,15 0,0 5,-42 15,-65 -3,-5 -12,-5 -12,-5 z"
         inkscape:connector-curvature="0" /><path
         id="path25"
         d="m 278,66 c 0,0 5,33 4,73 21,3 49,3 49,3 0,0 -24,-37 -41,-83 -7,0 -12,7 -12,7 z"
         inkscape:connector-curvature="0" /><circle
         id="circle27"
         sodipodi:rx="20"
         sodipodi:ry="20"
         d="m 256,65 c 0,11.045695 -8.95431,20 -20,20 -11.04569,0 -20,-8.954305 -20,-20 0,-11.045695 8.95431,-20 20,-20 11.04569,0 20,8.954305 20,20 z"
         cy="65"
         sodipodi:cy="65"
         cx="236"
         r="20"
         sodipodi:cx="236" /><circle
         id="circle29"
         sodipodi:rx="20"
         sodipodi:ry="20"
         d="m 301,51 c 0,11.045695 -8.95431,20 -20,20 -11.04569,0 -20,-8.954305 -20,-20 0,-11.045695 8.95431,-20 20,-20 11.04569,0 20,8.954305 20,20 z"
         cy="51"
         sodipodi:cy="51"
         cx="281"
         r="20"
         sodipodi:cx="281" /></g></g><path
     id="path39"
     style="fill:#ef0000"
     d="m 78.787535,59.121363 v 79.382047 c 0,0 -29.228539,0.33215 -45.171379,-25.24283 C 17.672652,87.685613 27.636927,65.099923 29.961925,59.121363 H 78.78687 z"
     inkscape:connector-curvature="0" /><path
     id="path47"
     style="fill:#ef0000"
     d="m 80.551211,59.121363 v 79.382047 c 0,0 29.228539,0.33215 45.171379,-25.24283 15.94284,-25.574967 5.97857,-48.160657 3.65357,-54.139217 H 80.551211 z"
     inkscape:connector-curvature="0" /><circle
     id="circle50"
     sodipodi:rx="26.5"
     sodipodi:ry="26.5"
     cx="207.5"
     cy="251.5"
     transform="matrix(0.33214249,0,0,0.33214249,-2.5880393,-10.296417)"
     sodipodi:cy="251.5"
     sodipodi:cx="207.5"
     r="26.5" /><circle
     id="circle52"
     sodipodi:rx="14"
     sodipodi:ry="14"
     cx="131"
     cy="245"
     transform="matrix(0.33214249,0,0,0.33214249,-2.5880393,-10.296417)"
     sodipodi:cy="245"
     sodipodi:cx="131"
     r="14" /><circle
     id="circle54"
     sodipodi:rx="20.5"
     sodipodi:ry="20.5"
     cx="214.5"
     cy="342.5"
     transform="matrix(0.33214249,0,0,0.33214249,-2.5880393,-10.296417)"
     sodipodi:cy="342.5"
     sodipodi:cx="214.5"
     r="20.5" /><circle
     id="circle56"
     sodipodi:rx="19.5"
     sodipodi:ry="19.5"
     cx="331.5"
     cy="262.5"
     transform="matrix(0.33214249,0,0,0.33214249,-2.5880393,-10.296417)"
     sodipodi:cy="262.5"
     sodipodi:cx="331.5"
     r="19.5" /><circle
     id="circle58"
     sodipodi:rx="11"
     sodipodi:ry="11"
     cx="376"
     cy="225"
     transform="matrix(0.33214249,0,0,0.33214249,-2.5880393,-10.296417)"
     sodipodi:cy="225"
     sodipodi:cx="376"
     r="11" /><circle
     id="circle60"
     sodipodi:rx="31"
     sodipodi:ry="31"
     cx="311"
     cy="373"
     transform="matrix(0.33214249,0,0,0.33214249,-2.5880393,-10.296417)"
     sodipodi:cy="373"
     sodipodi:cx="311"
     r="31" /><circle
     id="circle62"
     sodipodi:rx="25.5"
     sodipodi:ry="25.5"
     cx="378.5"
     cy="322.5"
     transform="matrix(0.33214249,0,0,0.33214249,-2.5880393,-10.296417)"
     sodipodi:cy="322.5"
     sodipodi:cx="378.5"
     r="25.5" /><circle
     id="circle64"
     sodipodi:rx="28"
     sodipodi:ry="28"
     cx="129"
     cy="347"
     transform="matrix(0.33214249,0,0,0.33214249,-2.5880393,-10.296417)"
     sodipodi:cy="347"
     sodipodi:cx="129"
     r="28" /><circle
     id="circle66"
     sodipodi:rx="15"
     sodipodi:ry="15"
     cx="189"
     cy="412"
     transform="matrix(0.33214249,0,0,0.33214249,-2.5880393,-10.296417)"
     sodipodi:cy="412"
     sodipodi:cx="189"
     r="15" /><metadata
     id="metadata3568"><rdf:RDF><cc:Work><dc:format>image/svg+xml</dc:format><dc:type
           rdf:resource="http://purl.org/dc/dcmitype/StillImage" /><cc:license
           rdf:resource="http://creativecommons.org/licenses/publicdomain/" /><dc:publisher><cc:Agent
             rdf:about="http://openclipart.org/"><dc:title>Openclipart</dc:title></cc:Agent></dc:publisher><dc:title>Ladybug flat colors</dc:title><dc:date>2010-05-27T11:01:37</dc:date><dc:description>-gradients +red</dc:description><dc:source>https://openclipart.org/detail/63205/ladybug-flat-colors-by-qubodup</dc:source><dc:creator><cc:Agent><dc:title>qubodup</dc:title></cc:Agent></dc:creator><dc:subject><rdf:Bag><rdf:li>animal</rdf:li><rdf:li>bug</rdf:li><rdf:li>environment</rdf:li><rdf:li>fly</rdf:li><rdf:li>icon</rdf:li><rdf:li>lady</rdf:li><rdf:li>ladybug</rdf:li><rdf:li>seasonal</rdf:li><rdf:li>shiny</rdf:li><rdf:li>simple</rdf:li><rdf:li>spring2010</rdf:li></rdf:Bag></dc:subject></cc:Work><cc:License
         rdf:about="http://creativecommons.org/licenses/publicdomain/"><cc:permits
           rdf:resource="http://creativecommons.org/ns#Reproduction" /><cc:permits
           rdf:resource="http://creativecommons.org/ns#Distribution" /><cc:permits
           rdf:resource="http://creativecommons.org/ns#DerivativeWorks" /></cc:License></rdf:RDF></metadata></svg>